Coordinates
version=1
nRows=10
nColumns=22
inDegrees=yes

Units are S.I. units (second, meters, Newtons, ...)
If the header above contains a line with 'inDegrees', this indicates whether rotational values are in degrees (yes) or radians (no).

endheader
time	pelvis_tilt	pelvis_list	pelvis_rotation	pelvis_tx	pelvis_ty	pelvis_tz	hip_flexion_r	hip_adduction_r	hip_rotation_r	knee_angle_r	ankle_angle_r	subtalar_angle_r	hip_flexion_l	hip_adduction_l	hip_rotation_l	knee_angle_l	ankle_angle_l	subtalar_angle_l	lumbar_extension	lumbar_bending	lumbar_rotation
      3.62000000	      2.16565425	     -1.97611792	    -83.83814452	      0.95704553	      0.86208638	      0.60890306	    -11.10151108	      0.16345281	     12.32303855	    -39.60289459	      9.95100214	      5.31610732	     28.66310993	      0.39064063	      0.09090729	    -32.05304599	      2.45620518	     -2.66991771	     -5.91225704	      2.01165187	     12.95445970
      3.63000000	      2.56064674	     -1.89231646	    -84.06362857	      0.96114424	      0.86300367	      0.61778899	     -9.86400088	     -0.42940124	     11.95499697	    -42.25265542	      9.02693860	      5.99056106	     28.19110425	      0.89699819	     -0.46711679	    -32.32345778	      2.94154936	     -2.91334376	     -5.88209467	      1.48289549	     12.94817115
      3.64000000	      2.95783904	     -1.80120577	    -84.29641913	      0.96520220	      0.86406324	      0.62636031	     -8.49753872	     -1.10244097	     11.37530633	    -44.93419152	      8.37743803	      6.22152340	     27.57490806	      1.41473425	     -1.04564948	    -32.30076973	      3.48120961	     -3.07705920	     -5.84931565	      0.97575722	     12.90023786
      3.65000000	      3.33103376	     -1.69609370	    -84.52625955	      0.96925876	      0.86526112	      0.63464220	     -7.03326373	     -1.83123508	     10.63460276	    -47.55101982	      7.92897633	      6.24429256	     26.89178091	      1.92841986	     -1.62491146	    -32.10093639	      4.01358656	     -3.31077306	     -5.79580183	      0.53126256	     12.74808262
      3.66000000	      3.66903581	     -1.59462465	    -84.76997575	      0.97326333	      0.86664273	      0.64266937	     -5.52648236	     -2.60318516	      9.78724307	    -50.01738922	      7.75351901	      5.88675539	     26.14666258	      2.42729933	     -2.15260813	    -31.76114394	      4.50487350	     -3.61855959	     -5.73471994	      0.15591870	     12.53070721
      3.67000000	      3.94601531	     -1.52396291	    -85.02737919	      0.97718280	      0.86827073	      0.65046198	     -4.04537415	     -3.35782786	      8.91338630	    -52.24724330	      7.85719371	      4.75153448	     25.33784094	      2.89221934	     -2.55968071	    -31.32407516	      4.98270488	     -4.06820492	     -5.69437463	     -0.11891468	     12.25986367
      3.68000000	      4.16912788	     -1.50212367	    -85.28989709	      0.98097030	      0.87016567	      0.65806548	     -2.64336342	     -4.08786826	      8.01517818	    -54.18381027	      8.26363149	      3.30893553	     24.47313650	      3.31394014	     -2.87452056	    -30.84053557	      5.36768716	     -4.34039222	     -5.69412044	     -0.31431011	     11.93819822
      3.69000000	      4.31686162	     -1.53023169	    -85.55180481	      0.98457883	      0.87232113	      0.66548018	     -1.34202123	     -4.73671457	      7.12522634	    -55.78864306	      8.91008709	      1.56234540	     23.57110044	      3.66595456	     -3.08307389	    -30.34119764	      5.67173162	     -4.59235746	     -5.73737723	     -0.41510720	     11.58138815
      3.70000000	      4.38226667	     -1.61163193	    -85.79850921	      0.98796652	      0.87470404	      0.67270362	     -0.16163571	     -5.26607997	      6.25027650	    -57.04652827	      9.74305862	     -0.36779021	     22.63894254	      3.93319985	     -3.19322201	    -29.84512717	      5.90699898	     -4.81420527	     -5.83564047	     -0.42732740	     11.20960321
      3.71000000	      4.37240330	     -1.73626349	    -86.02831464	      0.99113271	      0.87726745	      0.67974119	      0.89916920	     -5.67075069	      5.39367156	    -57.95521660	     10.66631037	     -2.30197939	     21.68551438	      4.11372694	     -3.24753806	    -29.35230578	      6.06021630	     -4.99797484	     -5.97984893	     -0.36292908	     10.82016584
